<?xml version="1.0" standalone="no"?>
<!DOCTYPE svg PUBLIC "-//W3C//DTD SVG 20010904//EN"
 "http://www.w3.org/TR/2001/REC-SVG-20010904/DTD/svg10.dtd">
<svg version="1.0" xmlns="http://www.w3.org/2000/svg"
 width="920.000000pt" height="920.000000pt" viewBox="0 0 920.000000 920.000000"
 preserveAspectRatio="xMidYMid meet">

<g transform="translate(0.000000,920.000000) scale(0.100000,-0.100000)"
fill="#000000" stroke="none">
<path d="M3230 6775 c-199 -40 -379 -137 -524 -281 -127 -128 -220 -288 -268
-464 l-23 -85 0 -1345 0 -1345 23 -85 c29 -105 97 -252 156 -334 56 -78 164
-186 242 -242 82 -59 229 -127 334 -156 l85 -23 1345 0 1345 0 85 23 c176 48
336 141 464 268 127 128 220 288 268 464 l23 85 0 1345 0 1345 -23 85 c-29
105 -97 252 -156 334 -56 78 -164 186 -242 242 -79 56 -226 126 -329 156 l-80
23 -1330 2 c-1063 1 -1343 -1 -1395 -12z m2702 -129 c344 -68 604 -308 699
-646 l24 -85 0 -1310 c0 -1368 1 -1334 -41 -1463 -81 -249 -304 -472 -556
-556 -141 -47 -119 -47 -1493 -44 l-1290 3 -85 26 c-343 104 -586 377 -640
719 -6 42 -10 511 -10 1316 0 1379 -2 1332 62 1491 115 285 343 478 643 544
74 16 178 18 1347 18 1061 1 1278 -1 1340 -13z"/>
<path d="M4573 5399 c-12 -4 -26 -17 -32 -28 -7 -13 -11 -138 -11 -360 l0
-341 -343 0 c-393 0 -390 0 -385 -73 5 -66 6 -67 391 -67 l337 0 0 -343 c0
-393 0 -390 73 -385 66 5 67 6 67 391 l0 337 338 0 c384 0 385 1 390 67 5 73
8 73 -385 73 l-343 0 0 338 c0 247 -4 343 -13 361 -14 28 -53 42 -84 30z"/>
</g>
</svg>
