<svg version="1.0" xmlns="http://www.w3.org/2000/svg"
 viewBox="0 0 512.000000 512.000000"
 preserveAspectRatio="xMidYMid meet">

<g transform="translate(0.000000,512.000000) scale(0.100000,-0.100000)"
fill="#000000" stroke="none">
<path d="M2370 5114 c-19 -2 -78 -9 -130 -15 -791 -90 -1522 -586 -1924 -1305
-146 -262 -252 -588 -297 -914 -18 -125 -18 -515 0 -640 105 -762 511 -1409
1146 -1826 609 -400 1377 -517 2090 -317 929 260 1646 1043 1819 1987 156 845
-103 1682 -705 2285 -399 398 -879 639 -1449 726 -100 15 -472 28 -550 19z
m540 -169 c58 -9 166 -31 240 -49 848 -211 1531 -892 1745 -1741 55 -219 69
-342 69 -595 0 -253 -14 -376 -69 -595 -213 -846 -894 -1527 -1740 -1740 -219
-55 -342 -69 -595 -69 -255 0 -368 13 -593 69 -849 213 -1528 892 -1742 1740
-55 219 -69 342 -69 595 0 253 14 376 69 595 192 760 764 1395 1507 1669 174
64 433 121 638 140 93 8 439 -4 540 -19z"/>
<path d="M2351 4790 c-938 -91 -1723 -759 -1956 -1665 -54 -208 -69 -333 -69
-560 -1 -271 30 -470 110 -711 88 -265 260 -571 414 -735 52 -55 76 -60 116
-26 46 39 38 69 -48 179 -555 710 -596 1688 -101 2438 672 1018 2068 1245
3031 492 110 -86 140 -94 179 -48 43 51 30 76 -90 170 -306 238 -663 391
-1047 451 -127 19 -410 27 -539 15z"/>
<path d="M4154 4027 c-46 -39 -38 -69 48 -179 653 -835 582 -2015 -166 -2764
-542 -541 -1324 -742 -2063 -528 -247 71 -489 196 -701 362 -110 86 -140 94
-179 48 -45 -52 -28 -80 110 -184 309 -235 648 -378 1039 -439 155 -24 479
-23 638 1 339 52 642 169 916 351 537 359 881 902 980 1545 22 141 25 472 6
605 -30 208 -94 438 -174 620 -108 247 -343 585 -405 585 -12 0 -34 -11 -49
-23z"/>
<path d="M2917 3304 l-695 -405 -403 -691 c-232 -397 -405 -705 -407 -722 -5
-42 34 -80 76 -74 16 2 340 185 720 407 l691 402 402 691 c222 380 405 704
407 720 6 37 -30 78 -68 78 -17 0 -280 -148 -723 -406z m492 94 c-7 -13 -140
-243 -297 -511 l-285 -489 -213 213 c-118 117 -210 216 -206 220 8 8 1005 589
1010 589 1 0 -3 -10 -9 -22z m-697 -1109 c-7 -7 -947 -555 -990 -578 -30 -16
-58 -67 286 522 l285 489 213 -213 c118 -117 210 -216 206 -220z"/>
</g>
</svg>
