<svg version="1.0" xmlns="http://www.w3.org/2000/svg"
 width="512.000000pt" height="512.000000pt" viewBox="0 0 512.000000 512.000000"
 preserveAspectRatio="xMidYMid meet">

<g transform="translate(0.000000,512.000000) scale(0.100000,-0.100000)"
fill="#000000" stroke="none">
<path d="M2495 4785 c-46 -21 -2054 -1882 -2092 -1938 -17 -26 -42 -73 -55
-105 l-23 -57 -3 -965 c-2 -672 1 -981 8 -1017 38 -179 195 -336 375 -373 33
-7 212 -10 502 -8 438 3 452 4 479 24 15 11 37 33 48 48 20 27 21 42 26 584 6
528 7 561 27 633 85 303 306 529 593 606 87 23 282 24 365 1 257 -70 452 -235
547 -459 63 -151 62 -132 68 -761 5 -562 6 -577 26 -604 11 -15 33 -37 48 -48
27 -20 41 -21 479 -24 301 -2 469 1 504 8 175 37 322 179 368 357 22 86 22
1920 0 2006 -20 78 -58 150 -107 203 -80 86 -2028 1879 -2056 1891 -36 16 -90
15 -127 -2z"/>
</g>
</svg>
