<svg version="1.1" id="Layer_1" xmlns="http://www.w3.org/2000/svg" xmlns:xlink="http://www.w3.org/1999/xlink" x="0px" y="0px"
	 width="100%" viewBox="0 0 225 225" enable-background="new 0 0 225 225" xml:space="preserve">
<path fill="#FEFEFE" opacity="1.000000" stroke="none" 
	d="
M1.000000,95.000000 
	C1.000000,63.698418 1.000000,32.396835 1.000000,1.047627 
	C75.892220,1.047627 150.784485,1.047627 226.000000,1.047627 
	C226.000000,38.353607 226.000000,75.708145 225.735229,113.781403 
	C223.964844,116.728531 222.459213,118.956947 220.023407,122.562119 
	C219.096939,119.056351 218.186005,116.967728 218.057083,114.831902 
	C217.807159,110.691032 218.287918,106.494232 217.872406,102.380554 
	C217.686615,100.541107 216.345551,98.562302 214.970490,97.217659 
	C214.371429,96.631859 211.529465,97.039093 211.149994,97.757744 
	C209.623199,100.649231 208.660629,103.838638 207.489578,106.917969 
	C208.027145,107.159264 208.564697,107.400566 209.102264,107.641861 
	C210.072723,106.832573 211.043167,106.023285 212.262497,105.006454 
	C212.481720,108.804535 212.625549,112.115273 212.875610,115.417976 
	C213.176010,119.384979 214.082504,123.016251 218.449081,124.533203 
	C222.796677,126.043564 223.632614,121.758057 226.000000,120.000000 
	C226.000000,155.299332 226.000000,190.598679 226.000000,225.949005 
	C151.106186,225.949005 76.212341,225.949005 1.000000,225.949005 
	C1.000000,184.979660 1.000000,143.958481 1.350696,102.523788 
	C3.462293,103.974503 5.223195,105.838730 6.984097,107.702957 
	C7.415226,107.441856 7.846355,107.180756 8.277485,106.919655 
	C4.850424,99.124344 5.913692,92.217239 11.781235,85.818901 
	C11.781235,100.746574 11.781235,115.196236 11.781235,129.763428 
	C15.778136,128.669281 17.841904,125.291191 17.948059,121.185036 
	C18.269318,108.758781 18.167988,96.321594 18.187111,83.563736 
	C17.762114,83.154160 17.381342,83.069527 16.701611,82.926125 
	C14.080217,83.179214 10.941777,82.655235 9.596803,83.968300 
	C6.291524,87.195168 3.811786,91.267647 1.000000,95.000000 
M86.754196,119.913132 
	C87.171967,119.341614 87.589737,118.770096 88.348145,118.882568 
	C92.401260,126.453079 96.860031,126.815163 103.488007,120.112015 
	C107.065651,125.176796 109.437088,125.666069 111.139389,123.057556 
	C109.960548,119.852371 108.513550,117.511810 108.329582,115.075867 
	C107.979919,110.445847 108.643272,105.736923 108.256012,101.113525 
	C108.133087,99.645905 106.244057,97.915657 104.734154,97.095200 
	C103.343803,96.339722 101.345001,96.359360 99.671928,96.548340 
	C97.061035,96.843239 93.656952,96.744362 92.119598,98.312721 
	C89.981209,100.494232 88.950706,103.969017 88.012665,107.062088 
	C87.057350,110.212112 86.788719,113.570389 85.878899,117.243042 
	C85.895348,117.766556 85.911797,118.290062 85.132614,118.920891 
	C81.599510,121.266052 79.929939,119.843567 79.864235,116.077148 
	C79.743721,109.169762 79.829895,102.258759 79.829895,95.441551 
	C87.756729,94.679367 87.756729,94.679367 88.821297,91.473457 
	C85.980133,91.215637 83.246819,90.967606 80.524261,90.720551 
	C79.526108,81.684898 79.526108,81.684898 74.177963,82.404053 
	C73.989273,85.087593 73.797035,87.821632 73.604797,90.555664 
	C73.204308,90.235458 72.803818,89.915253 72.403328,89.595047 
	C70.631943,90.840805 68.860550,92.086563 66.737625,93.881500 
	C67.159401,94.196182 67.581184,94.510864 68.906792,94.976089 
	C70.315964,95.076057 71.725136,95.176025 74.310921,95.359451 
	C73.144463,102.214615 72.061417,108.579567 70.357368,115.212845 
	C70.557945,115.467918 70.758522,115.722992 70.085449,116.270203 
	C66.716087,112.249458 63.346725,108.228714 60.092987,104.345955 
	C60.911484,102.113358 61.785336,99.729759 62.744919,97.112328 
	C55.057434,96.774925 52.454613,98.721413 53.319111,103.503387 
	C54.249466,108.649666 50.393269,116.297249 45.054256,118.995461 
	C45.054256,113.949585 44.873688,109.183235 45.114563,104.438271 
	C45.289753,100.987236 44.547165,98.021408 41.195503,96.851852 
	C37.408257,95.530312 35.410656,98.356087 33.865166,101.234566 
	C32.482784,103.809250 31.322109,106.502968 30.063610,109.144165 
	C28.998226,106.268478 28.877937,103.665100 29.027540,101.077324 
	C29.231688,97.546021 27.746798,96.337120 24.090910,97.059822 
	C24.090910,99.935570 24.087591,102.576889 24.091608,105.218193 
	C24.099718,110.548622 23.934008,115.889763 24.253962,121.201546 
	C24.328949,122.446487 26.052946,123.592094 27.018284,124.783409 
	C28.030758,123.777679 29.505280,122.946358 29.963863,121.731537 
	C31.072624,118.794304 31.430500,115.566444 32.602249,112.661964 
	C34.115444,108.911125 36.126461,105.361137 37.923107,101.724655 
	C38.983620,107.666092 38.678661,113.017990 39.131084,118.305077 
	C39.316608,120.473129 40.669239,123.318260 42.382069,124.298866 
	C43.479385,124.927086 46.502956,123.058319 48.119759,121.674294 
	C49.831890,120.208656 50.970921,118.036911 52.232384,116.090675 
	C53.819168,113.642532 55.276199,111.110275 56.960392,108.331947 
	C60.231842,111.645622 64.722519,113.975258 62.222462,118.846107 
	C61.677525,119.907799 57.298084,119.001358 53.942184,119.001358 
	C51.952003,121.117065 51.791668,122.996338 56.009895,124.215599 
	C63.406216,126.353493 68.605064,123.569954 71.770485,116.090668 
	C72.625900,117.058304 73.456757,118.049065 74.341858,118.988731 
	C76.154678,120.913315 77.805824,124.027931 79.883804,124.353569 
	C81.716362,124.640747 84.038849,121.801567 86.754196,119.913132 
M176.722748,120.164009 
	C181.201797,125.770470 183.966019,125.120140 187.087143,122.718880 
	C190.318619,123.387619 192.496964,123.838417 194.296524,124.210831 
	C195.368393,118.338127 196.070938,113.314034 197.317383,108.428703 
	C197.658417,107.092041 199.631210,106.171692 200.648773,105.959351 
	C201.072266,110.392532 201.326782,114.852966 202.034393,119.240326 
	C202.218445,120.381424 203.670593,121.569000 204.831955,122.188484 
	C205.359543,122.469902 207.334091,121.498924 207.393036,120.958694 
	C207.742355,117.756226 209.055893,112.741798 207.570847,111.624046 
	C203.488739,108.551544 205.442734,105.096237 205.311371,101.795784 
	C205.166351,98.151634 204.169785,95.976677 199.367447,97.594925 
	C197.929016,100.007126 196.490585,102.419334 194.998062,104.922241 
	C193.321518,102.274452 196.768661,96.118721 188.845078,97.084900 
	C188.845078,101.964836 189.042343,106.902588 188.758911,111.812584 
	C188.624359,114.143181 187.769028,116.504036 186.846054,118.684319 
	C186.437561,119.649269 185.050659,120.200027 184.107910,120.938812 
	C183.424225,119.936462 182.215073,118.967293 182.149323,117.925926 
	C181.887634,113.781754 181.899567,109.613777 181.964066,105.457008 
	C182.069138,98.684868 182.119492,98.690422 175.383804,97.934547 
	C175.075912,97.899986 174.807434,97.599586 174.496628,97.492859 
	C167.623077,95.132629 163.908508,96.698036 162.229309,103.896118 
	C160.972534,109.283463 161.092575,114.992004 160.624908,120.271431 
	C169.894302,125.850067 170.482620,125.910927 174.527344,122.009537 
	C175.024612,121.476051 175.521881,120.942566 176.722748,120.164009 
M135.081116,125.769928 
	C135.747452,123.475052 136.067947,120.999825 137.151321,118.922440 
	C139.487305,114.443115 142.095276,110.090233 144.849609,105.853088 
	C145.780579,104.420906 147.488205,103.493576 149.751999,101.555527 
	C149.751999,105.468170 149.689728,107.436447 149.765656,109.399368 
	C149.901749,112.917290 149.536865,116.591789 150.444626,119.909981 
	C151.752182,124.689644 155.850372,125.693237 160.038422,122.885735 
	C148.205063,117.365990 157.826462,107.594978 155.749237,99.946083 
	C153.245728,99.946083 150.935944,100.082314 148.657623,99.874084 
	C147.831726,99.798599 147.075500,98.907684 146.297409,98.374359 
	C145.035370,97.509323 143.781479,96.632347 142.524170,95.760422 
	C141.726227,97.359566 139.850235,99.420143 140.305161,100.483032 
	C143.275284,107.422302 138.144058,111.361519 135.465744,116.229706 
	C135.031616,112.606140 135.015961,109.111084 135.034912,105.616211 
	C135.072891,98.612045 135.080032,98.618576 128.420227,97.930153 
	C127.954102,97.881966 127.504250,97.646027 127.054115,97.477898 
	C121.074615,95.244629 115.982910,98.158745 115.045586,104.653893 
	C114.489120,108.509903 114.757278,112.487045 114.171341,116.336143 
	C113.448082,121.087318 116.753883,123.275993 119.950111,124.200066 
	C122.111504,124.824944 125.051903,122.780380 127.635025,121.903801 
	C128.279358,121.685150 128.889557,121.365982 129.515442,121.093025 
	C129.050797,123.187866 127.872345,124.448624 126.720833,125.733536 
	C124.095726,128.662781 121.250748,131.432281 118.929100,134.586151 
	C116.374191,138.056931 118.320717,144.333359 121.823730,144.973648 
	C128.258286,146.149765 133.044220,142.764023 134.271225,135.880478 
	C134.810120,132.857300 134.829056,129.741425 135.081116,125.769928 
z"/>
<path fill="#2D2D2D" opacity="1.000000" stroke="none" 
	d="
M18.231335,83.888672 
	C18.167988,96.321594 18.269318,108.758781 17.948059,121.185036 
	C17.841904,125.291191 15.778136,128.669281 11.781235,129.763428 
	C11.781235,115.196236 11.781235,100.746574 11.781235,85.818901 
	C5.913692,92.217239 4.850424,99.124344 8.277485,106.919655 
	C7.846355,107.180756 7.415226,107.441856 6.984097,107.702957 
	C5.223195,105.838730 3.462293,103.974503 1.350696,102.055130 
	C1.000000,99.958336 1.000000,97.916664 1.000000,95.437500 
	C3.811786,91.267647 6.291524,87.195168 9.596803,83.968300 
	C10.941777,82.655235 14.080217,83.179214 16.871111,83.124023 
	C17.636827,83.550011 17.934082,83.719337 18.231335,83.888672 
z"/>
<path fill="#2B2B2B" opacity="1.000000" stroke="none" 
	d="
M226.000000,119.571533 
	C223.632614,121.758057 222.796677,126.043564 218.449081,124.533203 
	C214.082504,123.016251 213.176010,119.384979 212.875610,115.417976 
	C212.625549,112.115273 212.481720,108.804535 212.262497,105.006454 
	C211.043167,106.023285 210.072723,106.832573 209.102264,107.641861 
	C208.564697,107.400566 208.027145,107.159264 207.489578,106.917969 
	C208.660629,103.838638 209.623199,100.649231 211.149994,97.757744 
	C211.529465,97.039093 214.371429,96.631859 214.970490,97.217659 
	C216.345551,98.562302 217.686615,100.541107 217.872406,102.380554 
	C218.287918,106.494232 217.807159,110.691032 218.057083,114.831902 
	C218.186005,116.967728 219.096939,119.056351 220.023407,122.562119 
	C222.459213,118.956947 223.964844,116.728531 225.735229,114.250061 
	C226.000000,115.714355 226.000000,117.428719 226.000000,119.571533 
z"/>
<path fill="#232323" opacity="1.000000" stroke="none" 
	d="
M135.082581,126.218781 
	C134.829056,129.741425 134.810120,132.857300 134.271225,135.880478 
	C133.044220,142.764023 128.258286,146.149765 121.823730,144.973648 
	C118.320717,144.333359 116.374191,138.056931 118.929100,134.586151 
	C121.250748,131.432281 124.095726,128.662781 126.720833,125.733536 
	C127.872345,124.448624 129.050797,123.187866 129.515442,121.093025 
	C128.889557,121.365982 128.279358,121.685150 127.635025,121.903801 
	C125.051903,122.780380 122.111504,124.824944 119.950111,124.200066 
	C116.753883,123.275993 113.448082,121.087318 114.171341,116.336143 
	C114.757278,112.487045 114.489120,108.509903 115.045586,104.653893 
	C115.982910,98.158745 121.074615,95.244629 127.054115,97.477898 
	C127.504250,97.646027 127.954102,97.881966 128.420227,97.930153 
	C135.080032,98.618576 135.072891,98.612045 135.034912,105.616211 
	C135.015961,109.111084 135.031616,112.606140 135.465744,116.229706 
	C138.144058,111.361519 143.275284,107.422302 140.305161,100.483032 
	C139.850235,99.420143 141.726227,97.359566 142.524170,95.760422 
	C143.781479,96.632347 145.035370,97.509323 146.297409,98.374359 
	C147.075500,98.907684 147.831726,99.798599 148.657623,99.874084 
	C150.935944,100.082314 153.245728,99.946083 155.749237,99.946083 
	C157.826462,107.594978 148.205063,117.365990 160.038513,122.885712 
	C155.850372,125.693237 151.752182,124.689644 150.444626,119.909981 
	C149.536865,116.591789 149.901749,112.917290 149.765656,109.399368 
	C149.689728,107.436447 149.751999,105.468170 149.751999,101.555527 
	C147.488205,103.493576 145.780579,104.420906 144.849609,105.853088 
	C142.095276,110.090233 139.487305,114.443115 137.151321,118.922440 
	C136.067947,120.999825 135.747452,123.475052 135.082581,126.218781 
M126.992180,119.343903 
	C129.001831,114.265633 131.675140,109.195450 128.876190,103.643486 
	C128.171936,102.246567 126.459419,100.524345 125.172523,100.492844 
	C123.924309,100.462288 121.697174,102.278374 121.517677,103.517761 
	C120.840500,108.193443 120.358704,113.000465 120.721977,117.687141 
	C120.959290,120.748878 123.342354,122.187622 126.992180,119.343903 
M129.993607,132.580322 
	C129.921234,131.071304 129.848862,129.562302 129.776489,128.053284 
	C129.240997,127.866570 128.705490,127.679855 128.169998,127.493134 
	C126.131340,130.981888 123.823975,134.352646 122.210098,138.027924 
	C121.694481,139.202148 123.017036,141.183563 123.498528,142.795639 
	C125.073341,142.175064 127.440559,141.980988 128.053299,140.842590 
	C129.225525,138.664703 129.399658,135.949631 129.993607,132.580322 
z"/>
<path fill="#262626" opacity="1.000000" stroke="none" 
	d="
M70.955574,115.933632 
	C68.605064,123.569954 63.406216,126.353493 56.009895,124.215599 
	C51.791668,122.996338 51.952003,121.117065 53.942184,119.001358 
	C57.298084,119.001358 61.677525,119.907799 62.222462,118.846107 
	C64.722519,113.975258 60.231842,111.645622 56.960392,108.331947 
	C55.276199,111.110275 53.819168,113.642532 52.232384,116.090675 
	C50.970921,118.036911 49.831890,120.208656 48.119759,121.674294 
	C46.502956,123.058319 43.479385,124.927086 42.382069,124.298866 
	C40.669239,123.318260 39.316608,120.473129 39.131084,118.305077 
	C38.678661,113.017990 38.983620,107.666092 37.923107,101.724655 
	C36.126461,105.361137 34.115444,108.911125 32.602249,112.661964 
	C31.430500,115.566444 31.072624,118.794304 29.963863,121.731537 
	C29.505280,122.946358 28.030758,123.777679 27.018284,124.783409 
	C26.052946,123.592094 24.328949,122.446487 24.253962,121.201546 
	C23.934008,115.889763 24.099718,110.548622 24.091608,105.218193 
	C24.087591,102.576889 24.090910,99.935570 24.090910,97.059822 
	C27.746798,96.337120 29.231688,97.546021 29.027540,101.077324 
	C28.877937,103.665100 28.998226,106.268478 30.063610,109.144165 
	C31.322109,106.502968 32.482784,103.809250 33.865166,101.234566 
	C35.410656,98.356087 37.408257,95.530312 41.195503,96.851852 
	C44.547165,98.021408 45.289753,100.987236 45.114563,104.438271 
	C44.873688,109.183235 45.054256,113.949585 45.054256,118.995461 
	C50.393269,116.297249 54.249466,108.649666 53.319111,103.503387 
	C52.454613,98.721413 55.057434,96.774925 62.744919,97.112328 
	C61.785336,99.729759 60.911484,102.113358 60.092987,104.345955 
	C63.346725,108.228714 66.716087,112.249458 70.509262,116.107559 
	C70.933067,115.944916 70.973541,115.930908 70.977905,115.945770 
	C70.982277,115.960625 70.955574,115.933632 70.955574,115.933632 
z"/>
<path fill="#2A2A2A" opacity="1.000000" stroke="none" 
	d="
M200.855164,105.060287 
	C199.631210,106.171692 197.658417,107.092041 197.317383,108.428703 
	C196.070938,113.314034 195.368393,118.338127 194.296524,124.210831 
	C192.496964,123.838417 190.318619,123.387619 187.087143,122.718880 
	C183.966019,125.120140 181.201797,125.770470 175.949402,120.222488 
	C175.020218,119.354973 174.676834,118.415901 174.740326,117.505196 
	C175.046616,113.110863 175.789886,108.713539 175.647964,104.340981 
	C175.603027,102.956741 173.477173,100.945213 171.961807,100.557823 
	C171.016190,100.316093 168.491608,102.439957 168.303101,103.738525 
	C167.651505,108.226532 167.293777,112.850800 167.643814,117.359558 
	C167.901047,120.673080 170.152847,122.866425 174.045135,121.933006 
	C170.482620,125.910927 169.894302,125.850067 160.624908,120.271431 
	C161.092575,114.992004 160.972534,109.283463 162.229309,103.896118 
	C163.908508,96.698036 167.623077,95.132629 174.496628,97.492859 
	C174.807434,97.599586 175.075912,97.899986 175.383804,97.934547 
	C182.119492,98.690422 182.069138,98.684868 181.964066,105.457008 
	C181.899567,109.613777 181.887634,113.781754 182.149323,117.925926 
	C182.215073,118.967293 183.424225,119.936462 184.107910,120.938812 
	C185.050659,120.200027 186.437561,119.649269 186.846054,118.684319 
	C187.769028,116.504036 188.624359,114.143181 188.758911,111.812584 
	C189.042343,106.902588 188.845078,101.964836 188.845078,97.084900 
	C196.768661,96.118721 193.321518,102.274452 194.998062,104.922241 
	C196.490585,102.419334 197.929016,100.007126 199.684662,97.836578 
	C200.286316,100.405579 200.570740,102.732933 200.855164,105.060287 
z"/>
<path fill="#2B2B2B" opacity="1.000000" stroke="none" 
	d="
M86.219414,116.837479 
	C86.788719,113.570389 87.057350,110.212112 88.012665,107.062088 
	C88.950706,103.969017 89.981209,100.494232 92.119598,98.312721 
	C93.656952,96.744362 97.061035,96.843239 99.671928,96.548340 
	C101.345001,96.359360 103.343803,96.339722 104.734154,97.095200 
	C106.244057,97.915657 108.133087,99.645905 108.256012,101.113525 
	C108.643272,105.736923 107.979919,110.445847 108.329582,115.075867 
	C108.513550,117.511810 109.960548,119.852371 111.139389,123.057556 
	C109.437088,125.666069 107.065651,125.176796 103.488007,120.112015 
	C96.860031,126.815163 92.401260,126.453079 88.054291,118.266174 
	C87.246765,117.379005 86.733093,117.108238 86.219414,116.837479 
M94.489601,118.745888 
	C96.872383,122.615120 99.731232,121.388596 100.610947,118.255844 
	C101.862114,113.800369 101.988953,108.957619 102.018738,104.276649 
	C102.027107,102.963310 100.009636,101.637070 98.921417,100.316750 
	C97.499748,101.495865 95.036835,102.527695 94.845428,103.880836 
	C94.187553,108.531715 94.324570,113.295044 94.489601,118.745888 
z"/>
<path fill="#262626" opacity="1.000000" stroke="none" 
	d="
M70.978371,114.944519 
	C72.061417,108.579567 73.144463,102.214615 74.310921,95.359451 
	C71.725136,95.176025 70.315964,95.076057 68.302155,94.481171 
	C67.494736,93.768272 67.291946,93.550301 67.089157,93.332321 
	C68.860550,92.086563 70.631943,90.840805 72.403328,89.595047 
	C72.803818,89.915253 73.204308,90.235458 73.604797,90.555664 
	C73.797035,87.821632 73.989273,85.087593 74.177963,82.404053 
	C79.526108,81.684898 79.526108,81.684898 80.524261,90.720551 
	C83.246819,90.967606 85.980133,91.215637 88.821297,91.473457 
	C87.756729,94.679367 87.756729,94.679367 79.829895,95.441551 
	C79.829895,102.258759 79.743721,109.169762 79.864235,116.077148 
	C79.929939,119.843567 81.599510,121.266052 85.580643,119.250122 
	C86.067444,119.833878 86.106216,120.088387 86.144997,120.342888 
	C84.038849,121.801567 81.716362,124.640747 79.883804,124.353569 
	C77.805824,124.027931 76.154678,120.913315 74.341858,118.988731 
	C73.456757,118.049065 72.625900,117.058304 71.363029,116.012146 
	C70.955574,115.933632 70.982277,115.960625 70.983871,115.699249 
	C70.985458,115.437874 70.978371,114.944519 70.978371,114.944519 
z"/>
<path fill="#F7F7F7" opacity="1.000000" stroke="none" 
	d="
M174.286240,121.971268 
	C170.152847,122.866425 167.901047,120.673080 167.643814,117.359558 
	C167.293777,112.850800 167.651505,108.226532 168.303101,103.738525 
	C168.491608,102.439957 171.016190,100.316093 171.961807,100.557823 
	C173.477173,100.945213 175.603027,102.956741 175.647964,104.340981 
	C175.789886,108.713539 175.046616,113.110863 174.740326,117.505196 
	C174.676834,118.415901 175.020218,119.354973 175.597626,120.345032 
	C175.521881,120.942566 175.024612,121.476051 174.286240,121.971268 
z"/>
<path fill="#292929" opacity="1.000000" stroke="none" 
	d="
M200.751968,105.509819 
	C200.570740,102.732933 200.286316,100.405579 200.001709,97.704376 
	C204.169785,95.976677 205.166351,98.151634 205.311371,101.795784 
	C205.442734,105.096237 203.488739,108.551544 207.570847,111.624046 
	C209.055893,112.741798 207.742355,117.756226 207.393036,120.958694 
	C207.334091,121.498924 205.359543,122.469902 204.831955,122.188484 
	C203.670593,121.569000 202.218445,120.381424 202.034393,119.240326 
	C201.326782,114.852966 201.072266,110.392532 200.751968,105.509819 
z"/>
<path fill="#2E2E2E" opacity="1.000000" stroke="none" 
	d="
M86.449600,120.128006 
	C86.106216,120.088387 86.067444,119.833878 85.978455,119.196472 
	C85.911797,118.290062 85.895348,117.766556 86.049156,117.040260 
	C86.733093,117.108238 87.246765,117.379005 87.883972,117.924179 
	C87.589737,118.770096 87.171967,119.341614 86.449600,120.128006 
z"/>
<path fill="#2E2E2E" opacity="1.000000" stroke="none" 
	d="
M66.913391,93.606911 
	C67.291946,93.550301 67.494736,93.768272 67.850235,94.405899 
	C67.581184,94.510864 67.159401,94.196182 66.913391,93.606911 
z"/>
<path fill="#2E2E2E" opacity="1.000000" stroke="none" 
	d="
M70.667870,115.078682 
	C70.978371,114.944519 70.985458,115.437874 70.979500,115.684387 
	C70.973541,115.930908 70.933067,115.944916 70.946075,115.961487 
	C70.758522,115.722992 70.557945,115.467918 70.667870,115.078682 
z"/>
<path fill="#444444" opacity="1.000000" stroke="none" 
	d="
M18.187111,83.563736 
	C17.934082,83.719337 17.636827,83.550011 17.170071,83.182785 
	C17.381342,83.069527 17.762114,83.154160 18.187111,83.563736 
z"/>
<path fill="#F5F5F5" opacity="1.000000" stroke="none" 
	d="
M126.712341,119.622803 
	C123.342354,122.187622 120.959290,120.748878 120.721977,117.687141 
	C120.358704,113.000465 120.840500,108.193443 121.517677,103.517761 
	C121.697174,102.278374 123.924309,100.462288 125.172523,100.492844 
	C126.459419,100.524345 128.171936,102.246567 128.876190,103.643486 
	C131.675140,109.195450 129.001831,114.265633 126.712341,119.622803 
z"/>
<path fill="#F2F2F2" opacity="1.000000" stroke="none" 
	d="
M129.990814,133.018906 
	C129.399658,135.949631 129.225525,138.664703 128.053299,140.842590 
	C127.440559,141.980988 125.073341,142.175064 123.498535,142.795639 
	C123.017036,141.183563 121.694481,139.202148 122.210098,138.027924 
	C123.823975,134.352646 126.131340,130.981888 128.169998,127.493134 
	C128.705490,127.679855 129.240997,127.866570 129.776489,128.053284 
	C129.848862,129.562302 129.921234,131.071304 129.990814,133.018906 
z"/>
<path fill="#F3F3F3" opacity="1.000000" stroke="none" 
	d="
M94.324127,118.380707 
	C94.324570,113.295044 94.187553,108.531715 94.845428,103.880836 
	C95.036835,102.527695 97.499748,101.495865 98.921417,100.316742 
	C100.009636,101.637070 102.027107,102.963310 102.018738,104.276649 
	C101.988953,108.957619 101.862114,113.800369 100.610947,118.255844 
	C99.731232,121.388596 96.872383,122.615120 94.324127,118.380707 
z"/>
</svg>