<svg version="1.1" id="Layer_1" xmlns="http://www.w3.org/2000/svg" xmlns:xlink="http://www.w3.org/1999/xlink" x="0px" y="0px"
	 width="100%" viewBox="0 0 225 225" enable-background="new 0 0 225 225" xml:space="preserve">
<path fill="#FEFEFE" opacity="1.000000" stroke="none" 
	d="
M158.000000,226.000000 
	C105.333336,226.000000 53.166672,226.000000 1.000007,226.000000 
	C1.000005,151.000000 1.000005,76.000015 1.000002,1.000017 
	C75.999992,1.000011 150.999985,1.000011 225.999969,1.000006 
	C225.999985,75.999985 225.999985,150.999969 226.000000,225.999969 
	C203.500000,226.000000 181.000000,226.000000 158.000000,226.000000 
M73.500145,53.332478 
	C63.172729,53.332546 52.845234,53.310802 42.517948,53.347565 
	C39.836807,53.357109 36.719555,53.184788 36.890976,57.159847 
	C37.057583,61.023415 40.227417,60.133865 42.558296,60.137466 
	C68.376839,60.177341 94.195473,60.162632 120.014076,60.162739 
	C141.834961,60.162827 163.656525,60.234703 185.475494,60.029980 
	C187.263916,60.013195 190.367920,58.310719 190.554642,57.049950 
	C191.044540,53.742435 188.076874,53.366749 185.436844,53.336349 
	C184.270996,53.322922 183.104874,53.332542 181.938873,53.332542 
	C146.125961,53.332458 110.313057,53.332485 73.500145,53.332478 
M153.500000,174.042923 
	C164.324265,174.042877 175.151810,174.173737 185.969269,173.902283 
	C187.599533,173.861359 189.182709,171.943024 190.787674,170.893143 
	C189.178726,169.624542 187.639725,168.246658 185.922409,167.147339 
	C185.331482,166.769104 184.295563,167.085464 183.462921,167.085464 
	C137.001831,167.085373 90.540749,167.083450 44.079670,167.094177 
	C42.587879,167.094513 40.856277,166.779449 39.670891,167.417953 
	C38.452671,168.074127 37.016720,169.754257 37.069416,170.923477 
	C37.118107,172.003693 38.856384,173.342010 40.141769,173.930435 
	C41.244228,174.435120 42.758591,174.042511 44.090797,174.042526 
	C80.227196,174.042969 116.363602,174.042908 153.500000,174.042923 
M117.499901,117.222961 
	C138.330765,117.222961 159.161621,117.224022 179.992477,117.221573 
	C182.491928,117.221283 185.057175,117.533188 187.463699,117.055031 
	C188.709900,116.807396 190.520111,115.157005 190.535889,114.117004 
	C190.552612,113.014282 188.928116,111.537254 187.675964,110.872093 
	C186.619873,110.311089 185.070572,110.640709 183.739578,110.640526 
	C137.078506,110.633972 90.417442,110.633072 43.756374,110.644020 
	C42.261673,110.644371 40.579399,110.379433 39.329342,110.969086 
	C38.253063,111.476776 37.023182,113.047302 37.053047,114.114548 
	C37.081959,115.147583 38.452732,116.518806 39.563301,117.039719 
	C40.664726,117.556358 42.176716,117.219429 43.508648,117.219673 
	C67.839066,117.224098 92.169479,117.222939 117.499901,117.222961 
z"/>
<path fill="#101010" opacity="1.000000" stroke="none" 
	d="
M74.000153,53.332485 
	C110.313057,53.332485 146.125961,53.332458 181.938873,53.332542 
	C183.104874,53.332542 184.270996,53.322922 185.436844,53.336349 
	C188.076874,53.366749 191.044540,53.742435 190.554642,57.049950 
	C190.367920,58.310719 187.263916,60.013195 185.475494,60.029980 
	C163.656525,60.234703 141.834961,60.162827 120.014076,60.162739 
	C94.195473,60.162632 68.376839,60.177341 42.558296,60.137466 
	C40.227417,60.133865 37.057583,61.023415 36.890976,57.159847 
	C36.719555,53.184788 39.836807,53.357109 42.517948,53.347565 
	C52.845234,53.310802 63.172729,53.332546 74.000153,53.332485 
z"/>
<path fill="#060606" opacity="1.000000" stroke="none" 
	d="
M153.000000,174.042923 
	C116.363602,174.042908 80.227196,174.042969 44.090797,174.042526 
	C42.758591,174.042511 41.244228,174.435120 40.141769,173.930435 
	C38.856384,173.342010 37.118107,172.003693 37.069416,170.923477 
	C37.016720,169.754257 38.452671,168.074127 39.670891,167.417953 
	C40.856277,166.779449 42.587879,167.094513 44.079670,167.094177 
	C90.540749,167.083450 137.001831,167.085373 183.462921,167.085464 
	C184.295563,167.085464 185.331482,166.769104 185.922409,167.147339 
	C187.639725,168.246658 189.178726,169.624542 190.787674,170.893143 
	C189.182709,171.943024 187.599533,173.861359 185.969269,173.902283 
	C175.151810,174.173737 164.324265,174.042877 153.000000,174.042923 
z"/>
<path fill="#000000" opacity="1.000000" stroke="none" 
	d="
M116.999893,117.222961 
	C92.169479,117.222939 67.839066,117.224098 43.508648,117.219673 
	C42.176716,117.219429 40.664726,117.556358 39.563301,117.039719 
	C38.452732,116.518806 37.081959,115.147583 37.053047,114.114548 
	C37.023182,113.047302 38.253063,111.476776 39.329342,110.969086 
	C40.579399,110.379433 42.261673,110.644371 43.756374,110.644020 
	C90.417442,110.633072 137.078506,110.633972 183.739578,110.640526 
	C185.070572,110.640709 186.619873,110.311089 187.675964,110.872093 
	C188.928116,111.537254 190.552612,113.014282 190.535889,114.117004 
	C190.520111,115.157005 188.709900,116.807396 187.463699,117.055031 
	C185.057175,117.533188 182.491928,117.221283 179.992477,117.221573 
	C159.161621,117.224022 138.330765,117.222961 116.999893,117.222961 
z"/>
</svg>