<svg version="1.0" xmlns="http://www.w3.org/2000/svg"
 viewBox="0 0 238.000000 212.000000"
 preserveAspectRatio="xMidYMid meet">

<g transform="translate(0.000000,212.000000) scale(0.100000,-0.100000)"
fill="#000000" stroke="none">
<path d="M608 2110 c-228 -41 -434 -194 -532 -394 -53 -108 -70 -184 -69 -311
0 -134 17 -203 82 -340 122 -254 305 -446 861 -900 173 -142 199 -160 232
-160 27 0 47 9 75 33 21 17 136 111 257 208 294 237 402 332 523 457 160 166
248 302 304 467 29 85 32 107 32 210 0 169 -41 299 -138 435 -239 335 -701
401 -990 141 l-60 -53 -58 53 c-70 65 -126 99 -215 130 -77 26 -227 38 -304
24z m200 -190 c124 -29 221 -114 317 -277 56 -96 75 -119 75 -91 0 30 101 189
155 244 186 188 461 178 666 -26 125 -124 184 -285 161 -438 -42 -264 -227
-490 -732 -892 -85 -68 -180 -145 -211 -172 l-57 -48 -173 142 c-569 463 -768
705 -811 982 -51 330 288 650 610 576z"/>
</g>
</svg>
