<svg version="1.0" xmlns="http://www.w3.org/2000/svg"
  viewBox="0 0 238 212" preserveAspectRatio="xMidYMid meet"
  role="img" aria-label="Notifications">
  <title>Notifications</title>
  <!-- Fit 24×24 into 238×212:
       scale(203/24 ≈ 8.4583) -> 203×203,
       translate((238-203)/2, (212-203)/2) -> (17.5, 4.5) -->
  <g transform="translate(17.5,4.5) scale(8.4583333333)">
    <path fill="currentColor" d="M17.075 1.987a5.852 5.852 0 0 0-5.07 2.66l-.008.012-.01-.014a5.878 5.878 0 0 0-5.062-2.658A6.719 6.719 0 0 0 .5 8.952c0 3.514 2.581 5.757 5.077 7.927.302.262.607.527.91.797l1.089.973c2.112 1.89 3.149 2.813 3.642 3.133a1.438 1.438 0 0 0 1.564 0c.472-.306 1.334-1.07 3.755-3.234l.978-.874c.314-.28.631-.555.945-.827 2.478-2.15 5.04-4.372 5.04-7.895a6.719 6.719 0 0 0-6.425-6.965Z"/>
  </g>
</svg>
