<svg version="1.0" xmlns="http://www.w3.org/2000/svg"
 viewBox="0 0 225.000000 225.000000"
 preserveAspectRatio="xMidYMid meet">

<g transform="translate(0.000000,225.000000) scale(0.100000,-0.100000)"
fill="#000000" stroke="none">
<path d="M542 2239 c-134 -23 -244 -81 -347 -185 -82 -82 -136 -177 -165 -290
-19 -72 -20 -113 -20 -639 0 -526 1 -567 20 -639 52 -204 209 -378 402 -446
103 -36 172 -40 693 -40 521 0 590 4 693 40 135 48 277 171 345 297 76 144 77
155 77 788 0 528 -1 567 -20 639 -54 211 -214 383 -423 453 l-82 28 -560 1
c-308 1 -584 -2 -613 -7z m813 -316 c55 -91 110 -184 123 -205 l23 -38 -270 0
-270 0 -116 192 c-64 105 -119 197 -122 205 -4 11 44 13 264 13 l268 0 100
-167z m370 152 c131 -34 249 -132 309 -257 19 -40 38 -88 41 -105 l7 -33 -200
0 -199 0 -118 198 c-65 108 -120 200 -122 205 -8 14 221 7 282 -8z m-1066
-197 l120 -198 -305 0 -306 0 7 33 c20 103 118 241 215 302 46 29 129 66 142
62 4 -1 61 -91 127 -199z m1431 -800 c0 -250 -5 -471 -10 -508 -22 -138 -126
-288 -246 -352 -105 -57 -119 -58 -715 -58 -519 0 -550 1 -612 20 -173 53
-308 210 -336 390 -6 38 -11 251 -11 508 l0 442 965 0 965 0 0 -442z"/>
<path d="M873 1250 c-12 -5 -26 -18 -32 -29 -7 -13 -11 -135 -11 -350 l0 -330
26 -20 c15 -12 34 -21 42 -21 17 0 472 264 530 307 25 19 32 31 32 57 0 19 -7
40 -17 48 -30 26 -510 336 -530 341 -10 3 -28 2 -40 -3z"/>
</g>
</svg>
