<svg version="1.0" xmlns="http://www.w3.org/2000/svg" viewBox="0 0 225.000000 224.000000"
 preserveAspectRatio="xMidYMid meet">

<g transform="translate(0.000000,224.000000) scale(0.100000,-0.100000)"
fill="#000000" stroke="none">
<path d="M810 2228 c-97 -13 -250 -69 -342 -124 -162 -97 -316 -272 -388 -442
-53 -124 -73 -230 -73 -377 0 -159 23 -265 87 -401 53 -112 89 -165 168 -249
122 -131 298 -233 474 -276 131 -33 323 -31 455 4 112 29 219 78 309 141 l65
45 270 -269 c176 -175 280 -271 298 -275 61 -15 126 45 112 104 -4 16 -107
127 -277 298 l-272 272 46 68 c58 87 85 140 115 228 171 502 -94 1041 -595
1211 -150 51 -295 64 -452 42z m330 -195 c269 -63 499 -294 567 -570 23 -93
22 -266 -1 -358 -63 -251 -258 -463 -504 -548 -74 -25 -106 -31 -213 -35 -161
-6 -244 11 -378 79 -202 101 -347 282 -403 501 -17 68 -19 103 -16 212 5 152
30 241 100 361 49 84 189 226 272 274 169 100 380 131 576 84z"/>
</g>
</svg>
