<svg version="1.0" xmlns="http://www.w3.org/2000/svg"
 viewBox="0 0 512.000000 512.000000"
 preserveAspectRatio="xMidYMid meet">

<path fill="#000000" opacity="1.000000" stroke="none" 
	d="
M234.000000,1.000000 
	C251.687561,1.000000 269.375122,1.000000 287.809875,1.201168 
	C291.424011,3.590142 294.995972,2.867165 298.163055,3.361212 
	C326.808075,7.829723 353.668732,17.231928 379.177063,30.955463 
	C409.296936,47.160042 434.827576,68.702545 456.467712,95.107147 
	C480.113403,123.958847 496.348175,156.502914 505.850494,192.475693 
	C509.448456,206.096527 511.542969,219.998932 513.000000,234.000000 
	C513.000000,249.020889 513.000000,264.041779 512.999512,279.934814 
	C511.804932,288.816040 510.744965,296.847870 509.391937,304.830048 
	C505.198334,329.570282 496.849915,352.952881 485.303009,375.135376 
	C475.704803,393.574341 464.112915,410.697845 450.176849,426.264252 
	C437.726990,440.170563 424.289795,452.917236 409.303253,464.004883 
	C394.721252,474.793243 379.134521,483.862457 362.560455,491.315033 
	C343.866241,499.720917 324.558319,505.915680 304.376526,509.592896 
	C298.911926,510.588593 293.106384,510.222565 288.000000,513.000000 
	C267.312439,513.000000 246.624878,513.000000 225.274857,512.739258 
	C221.468185,510.799561 217.906830,510.960754 214.551620,510.440125 
	C188.073151,506.331665 163.071609,497.729370 139.308243,485.573120 
	C124.661926,478.080750 110.800705,469.223755 97.938629,458.901062 
	C81.940651,446.061584 67.497192,431.652069 54.772560,415.560211 
	C40.907539,398.026184 29.609730,378.921173 20.807011,358.392242 
	C13.338711,340.975342 7.728595,322.982513 4.399814,304.258301 
	C3.494527,299.166107 4.095494,293.632965 1.000000,289.000000 
	C1.000000,268.312439 1.000000,247.624878 1.200717,226.160034 
	C1.789335,224.482468 2.427766,223.609360 2.528749,222.677979 
	C5.605285,194.302795 14.278802,167.548615 26.955204,142.173218 
	C42.098888,111.858887 62.654400,85.689354 88.275925,63.279587 
	C114.829506,40.054604 144.824478,23.304150 178.140625,12.261234 
	C196.282150,6.248075 215.008820,2.912968 234.000000,1.000000 
M43.395695,164.773041 
	C28.161077,200.910141 21.664808,238.388184 25.252516,277.616699 
	C26.879578,295.407196 30.288893,312.782898 35.961021,329.611938 
	C49.339382,369.305145 71.584778,403.219757 103.137337,431.010986 
	C122.520859,448.083832 143.954514,461.682281 167.716217,471.777496 
	C191.622787,481.934174 216.625397,487.636719 242.388794,489.397125 
	C257.095459,490.402008 271.898315,489.829987 286.661926,487.796326 
	C310.207489,484.552979 332.790741,478.275452 354.257721,468.212860 
	C383.971741,454.284485 409.841797,435.173645 431.504242,410.354309 
	C448.273621,391.140991 461.655426,369.915833 471.673187,346.492188 
	C481.894928,322.591614 487.608307,297.549530 489.385925,271.761292 
	C490.399414,257.058533 489.839386,242.254913 487.830902,227.487808 
	C484.719391,204.611069 478.824707,182.566971 469.269562,161.648315 
	C452.746490,125.475159 428.626923,95.145897 396.808655,71.187874 
	C359.743256,43.278942 317.797974,27.940029 271.650909,24.560627 
	C251.229813,23.065168 230.763702,24.542252 210.688370,28.832451 
	C185.677933,34.177303 161.935394,42.998470 139.859375,56.121758 
	C116.377716,70.080643 95.553574,87.205841 78.157990,108.269287 
	C64.129356,125.255859 52.637112,143.915588 43.395695,164.773041 
z"/>
<path fill="#000000" opacity="1.000000" stroke="none" 
	d="
M189.367279,335.584839 
	C208.102310,347.952148 228.287033,354.476807 250.393982,355.703461 
	C283.757904,357.554718 312.581329,346.595367 338.022461,325.672638 
	C341.607788,322.724060 344.623993,319.090973 347.975830,315.849335 
	C353.472260,310.533661 360.502899,310.439941 365.774200,315.535950 
	C370.458771,320.064758 370.211212,327.548035 365.220306,332.954437 
	C344.295959,355.620636 318.673645,370.661469 288.651520,376.908264 
	C244.209702,386.155426 203.345657,376.818756 166.786057,349.711304 
	C160.104141,344.756927 154.256699,338.770477 148.615036,332.650787 
	C143.631744,327.245239 143.534546,320.221558 148.162064,315.709198 
	C153.456924,310.546112 160.486664,310.381653 165.888702,315.791046 
	C173.075119,322.987244 180.576324,329.758820 189.367279,335.584839 
z"/>
<path fill="#000000" opacity="1.000000" stroke="none" 
	d="
M377.934845,230.962738 
	C375.911987,214.887085 362.178802,202.459183 346.652649,202.408844 
	C330.602966,202.356812 316.444092,214.416245 314.346313,229.902115 
	C314.013245,232.360703 313.688446,234.828079 313.180359,237.253784 
	C311.868958,243.514130 306.924774,246.837372 299.811798,246.353867 
	C294.459229,245.990036 289.963806,241.589752 289.701019,235.862778 
	C288.474457,209.135818 306.932831,185.129013 333.181915,179.745255 
	C354.675232,175.336914 373.792206,180.571030 388.709686,197.450684 
	C398.337158,208.344574 403.080078,221.209625 402.289612,235.842667 
	C401.949097,242.146271 397.391724,246.254913 391.255493,246.372559 
	C384.303925,246.505859 379.614960,242.740738 378.685211,236.256042 
	C378.450684,234.620544 378.277771,232.976196 377.934845,230.962738 
z"/>
<path fill="#000000" opacity="1.000000" stroke="none" 
	d="
M192.885864,183.858948 
	C213.291122,194.708130 223.907593,211.305969 224.314178,234.130463 
	C224.441360,241.269958 220.142075,246.045197 213.945862,246.356277 
	C206.037491,246.753311 201.523331,243.237137 200.677719,235.506073 
	C199.302658,222.934280 194.624115,212.731628 182.838806,206.358627 
	C164.192932,196.275696 140.523193,207.348480 136.368011,228.334259 
	C135.632385,232.049622 135.913986,235.964081 134.248077,239.493027 
	C131.479218,245.358459 126.939140,247.545883 120.285973,246.243347 
	C115.513405,245.308990 111.798523,240.498352 111.649117,234.840179 
	C111.167236,216.591125 118.451874,201.610458 132.512512,190.571579 
	C150.830048,176.190582 171.240662,174.743668 192.885864,183.858948 
z"/>
</svg>