<?xml version="1.0" standalone="no"?>
<!DOCTYPE svg PUBLIC "-//W3C//DTD SVG 20010904//EN"
 "http://www.w3.org/TR/2001/REC-SVG-20010904/DTD/svg10.dtd">
<svg version="1.0" xmlns="http://www.w3.org/2000/svg"
 viewBox="0 0 512.000000 512.000000"
 preserveAspectRatio="xMidYMid meet">


<g transform="translate(0.000000,512.000000) scale(0.100000,-0.100000)"
fill="#000000" stroke="none">
<path d="M3175 4099 c-210 -27 -434 -149 -562 -308 -26 -33 -50 -60 -53 -60
-3 0 -25 25 -50 56 -24 31 -75 81 -113 111 l-69 55 -670 -670 -671 -671 44
-81 c24 -45 71 -118 105 -164 60 -79 1252 -1286 1305 -1320 13 -9 48 -21 76
-27 43 -10 63 -9 109 5 55 16 68 28 658 619 331 332 625 630 653 662 119 138
230 342 277 509 91 325 40 623 -152 881 -104 140 -228 241 -396 319 -106 51
-177 70 -301 85 -99 11 -92 11 -190 -1z"/>
</g>
</svg>
