<?xml version="1.0" standalone="no"?>
<!DOCTYPE svg PUBLIC "-//W3C//DTD SVG 20010904//EN"
 "http://www.w3.org/TR/2001/REC-SVG-20010904/DTD/svg10.dtd">
<svg version="1.0" xmlns="http://www.w3.org/2000/svg"
 viewBox="0 0 512.000000 512.000000"
 preserveAspectRatio="xMidYMid meet">



<g transform="translate(0.000000,512.000000) scale(0.100000,-0.100000)"
fill="#000000" stroke="none">
<path d="M2480 4156 c-1224 -408 -2234 -748 -2245 -755 -39 -25 -59 -64 -63
-123 -8 -110 -68 -70 974 -648 511 -283 938 -524 949 -535 11 -11 252 -438
535 -948 363 -654 523 -935 543 -949 31 -22 101 -34 141 -24 14 3 41 20 60 37
33 29 64 117 781 2270 642 1926 747 2247 742 2282 -10 74 -68 128 -144 133
-42 3 -338 -93 -2273 -740z m688 -763 l-976 -976 -731 404 c-402 222 -731 406
-731 409 0 5 3385 1138 3405 1139 5 1 -429 -438 -967 -976z m634 -961 c-312
-936 -569 -1702 -572 -1702 -4 1 -647 1155 -784 1407 l-30 54 974 974 c536
536 975 973 977 971 1 -1 -253 -768 -565 -1704z"/>
</g>
</svg>


